<svg width="545.1mm" height="198.41mm" version="1.1" viewBox="0 0 545.1 198.41" xmlns="http://www.w3.org/2000/svg" xmlns:xlink="http://www.w3.org/1999/xlink">
 <g transform="translate(487.64,130.44)">
  <g transform="matrix(3.246,0,0,3.246,-784.68,-166.1)" fill="#aad400" fill-rule="evenodd" shape-rendering="auto">
   <path d="m91.51 10.986 3.2266 8.291c2.1838 5.6112 3.364 18.089 5.6836 29.133 1.1598 5.5221 2.6047 10.816 5.4336 15.361 2.8289 4.5456 8.0614 8.4446 14.236 8.3359l56.25-0.99023 0.28711-5.6738s0.67609-12.465-1.3945-25.309c-1.0353-6.4217-2.6831-13.015-5.9688-18.627-3.2856-5.6118-9.1684-10.521-16.656-10.521zm16.932 12.17h44.166c2.7076 0 4.1657 1.0982 6.1562 4.498s3.5533 8.8223 4.4551 14.416c1.0917 6.7712 1.2833 12.684 1.2949 17.084l-44.639 0.78516c-1.7744 0.03123-2.2504-0.28345-3.6894-2.5957-1.439-2.3122-2.8231-6.5202-3.8555-11.436-1.4838-7.0648-2.2696-15.297-3.8887-22.752z" color="#000000" color-rendering="auto" dominant-baseline="auto" image-rendering="auto" solid-color="#000000" style="font-feature-settings:normal;font-variant-alternates:normal;font-variant-caps:normal;font-variant-ligatures:normal;font-variant-numeric:normal;font-variant-position:normal;isolation:auto;mix-blend-mode:normal;shape-padding:0;text-decoration-color:#000000;text-decoration-line:none;text-decoration-style:solid;text-indent:0;text-orientation:mixed;text-transform:none;white-space:normal"/>
   <path d="m222.06 11.254c-18.087 0-29.058 10.26-33.496 21.857-4.4383 11.598-3.9548 24.315-3.6719 32.5l0.20899 6.0801 12.162-0.41992-0.21094-6.082c-0.27781-8.0373-0.32917-19.351 2.877-27.729 3.2061-8.3779 8.0594-14.037 22.131-14.037 14.044 0 18.878 5.7329 22.086 14.184 3.2084 8.4507 3.1606 19.767 2.9629 27.641l-0.1543 6.082 12.166 0.30469 0.15234-6.082c0.1989-7.9194 0.66421-20.634-3.752-32.266-4.4162-11.632-15.346-22.033-33.461-22.033z" color="#000000" color-rendering="auto" dominant-baseline="auto" image-rendering="auto" solid-color="#000000" style="font-feature-settings:normal;font-variant-alternates:normal;font-variant-caps:normal;font-variant-ligatures:normal;font-variant-numeric:normal;font-variant-position:normal;isolation:auto;mix-blend-mode:normal;shape-padding:0;text-decoration-color:#000000;text-decoration-line:none;text-decoration-style:solid;text-indent:0;text-orientation:mixed;text-transform:none;white-space:normal"/>
  </g>
  <g class="letters">
   <path d="m-453.03-29.95v11.348h42.051l-40.09 34.991h23.189l42.684-37.252v-9.0866zm-1.1993 49.096-0.0435 0.03866v9.0849h70.319v-9.1235z" style="font-feature-settings:normal;font-variant-caps:normal;font-variant-ligatures:normal;font-variant-numeric:normal"/>
   <path d="m-369.81-29.95 30.755 33.693v12.646h20.808v-12.646l30.756-33.693h-22.81l-18.378 20.746-18.376-20.746zm30.755 49.096v9.1235h20.808v-9.1235z" style="font-feature-settings:normal;font-variant-caps:normal;font-variant-ligatures:normal;font-variant-numeric:normal"/>
   <path d="m-252.43-29.95c-8.7858 0-16.022 6.3942-17.331 14.802v31.537h20.81v-12.802h33.241v-11.348h-33.241v-10.841h35.348v-11.348zm-17.331 49.096v9.1235h20.81v-9.1235z" style="font-feature-settings:normal;font-variant-caps:normal;font-variant-ligatures:normal;font-variant-numeric:normal"/>
   <path d="m-178.48-29.95c-8.7858 0-16.022 6.3942-17.331 14.802v31.537h20.81v-10.15h5.8911c3.3872 0 6.0908 0.5327 8.1087 1.5986 2.0539 1.0659 4.0719 3.055 6.0538 5.9666l1.7579 2.5849h22.122l-3.1787-4.6532c-2.3061-3.3536-4.5955-5.8485-6.8657-7.4863-2.2341-1.6638-4.7739-2.7293-7.6205-3.1972 5.1888-1.1699 9.0628-2.9903 11.621-5.46 2.5944-2.4696 3.8916-5.6282 3.8916-9.4758 0-5.5633-2.4868-9.6312-7.4595-12.205-4.9366-2.5737-12.72-3.8614-23.35-3.8614zm3.479 10.88h8.7561c4.3601 0 7.4779 0.57211 9.3516 1.716 1.9098 1.1439 2.8633 3.0415 2.8633 5.6932 0 2.6776-0.95355 4.6021-2.8633 5.772-1.8737 1.1699-4.9916 1.7546-9.3516 1.7546h-8.7561zm-20.81 38.217v9.1235h20.81v-9.1235zm44.497 0 6.2031 9.1235h22.16l-6.2333-9.1235z" style="font-feature-settings:normal;font-variant-caps:normal;font-variant-ligatures:normal;font-variant-numeric:normal"/>
   <path d="m-73.766-31.001c-12.936 0-23.097 2.6779-30.484 8.0332-7.3509 5.3553-11.026 12.75-11.026 22.187 0 6.777 1.9163 12.496 5.7284 17.17h25.252c-1.5837-0.771-2.9947-1.7472-4.2254-2.9372-3.4953-3.3795-5.2436-8.1237-5.2436-14.233 0-6.1353 1.7484-10.892 5.2436-14.272 3.4953-3.3796 8.4127-5.0692 14.755-5.0692 6.378 0 11.315 1.6895 14.81 5.0692 3.4953 3.3796 5.2436 8.1363 5.2436 14.272 0 6.1092-1.7483 10.853-5.2436 14.233-1.2305 1.1898-2.6427 2.1663-4.2305 2.9372h25.203c3.812-4.6739 5.7284-10.393 5.7284-17.17 0-9.4369-3.6749-16.832-11.026-22.187-7.3508-5.3553-17.513-8.0332-30.485-8.0332zm-33.191 50.148c0.8401 0.77502 1.74 1.5161 2.7074 2.2209 7.3869 5.3553 17.548 8.0332 30.484 8.0332 12.972 0 23.135-2.6779 30.485-8.0332 0.9677-0.70503 1.8671-1.4456 2.7074-2.2209z" style="font-feature-settings:normal;font-variant-caps:normal;font-variant-ligatures:normal;font-variant-numeric:normal"/>
   <path d="m2.4693-29.95c-8.7858 0-16.022 6.3942-17.331 14.802v31.537h19.728v-28.05l20.617 28.05h31.973v-46.339h-19.728v39.931l-29.35-39.931zm-17.331 49.096v9.1235h19.728v-9.1235zm42.372 0 6.7063 9.1235h23.241v-9.1235z" style="font-feature-settings:normal;font-variant-caps:normal;font-variant-ligatures:normal;font-variant-numeric:normal"/>
  </g>
 </g>
</svg>
