<svg width="545.1mm" height="198.41mm" version="1.1" viewBox="0 0 545.1 198.41" xmlns="http://www.w3.org/2000/svg" xmlns:xlink="http://www.w3.org/1999/xlink">
 <defs>
  <linearGradient id="linearGradient864">
   <stop stop-color="#0ff" offset="0"/>
   <stop stop-color="#0ff" stop-opacity="0" offset="1"/>
  </linearGradient>
  <linearGradient id="linearGradient2692">
   <stop stop-color="#aad400" stop-opacity=".042056" offset="0"/>
   <stop stop-color="#0ff" offset="1"/>
  </linearGradient>
  <linearGradient id="linearGradient2686" x1="491.42" x2="248.32" y1="889.06" y2="1118.3" gradientUnits="userSpaceOnUse">
   <stop stop-color="#87decd" offset="0"/>
   <stop stop-color="#aad400" stop-opacity="0" offset="1"/>
  </linearGradient>
  <linearGradient id="linearGradient2694" x1="303.01" x2="189.04" y1="1087.4" y2="1733.5" gradientUnits="userSpaceOnUse" xlink:href="#linearGradient2692"/>
  <linearGradient id="linearGradient858" x1="44.822" x2="-435.26" y1="1674.5" y2="1465.5" gradientUnits="userSpaceOnUse" xlink:href="#linearGradient864"/>
  <linearGradient id="linearGradient866" x1="-1100.3" x2="-755.26" y1="1170.3" y2="1229.7" gradientUnits="userSpaceOnUse" xlink:href="#linearGradient864"/>
  <linearGradient id="linearGradient922" x1="-1100.3" x2="-755.26" y1="1170.3" y2="1229.7" gradientTransform="matrix(.11882 0 0 .11882 830.73 230.77)" gradientUnits="userSpaceOnUse" xlink:href="#linearGradient864"/>
  <linearGradient id="linearGradient924" x1="44.822" x2="-435.26" y1="1674.5" y2="1465.5" gradientTransform="matrix(.11882 0 0 .11882 830.73 230.77)" gradientUnits="userSpaceOnUse" xlink:href="#linearGradient864"/>
  <linearGradient id="linearGradient926" x1="303.01" x2="189.04" y1="1087.4" y2="1733.5" gradientTransform="matrix(.11882 0 0 .11882 830.73 230.77)" gradientUnits="userSpaceOnUse" xlink:href="#linearGradient2692"/>
 </defs>
 <g transform="translate(487.64 130.44)">
  <circle cx="842.65" cy="364.35" r="157.9" fill="none" stroke="#999" stroke-linecap="square" stroke-width="10.583"/>
  <path d="m167.78 229.69c-39.056-0.1188-78.608 17.832-100.79 50.615-23.353 34.208-27.115 77.274-26.422 117.58 0.36442 14.72 1.7139 30.448 2.1917 45.164 18.638 0.2681 36.897 0.17533 54.598 0-1.0119-37.44-4.595-78.878 6.9918-115.13 5.5701-17.804 17.92-35.058 37.029-39.471 19.622-4.777 40.896-4.9321 60.22 1.2728 22.933 7.6367 32.856 32.4 37.334 54.165 6.2343 31.8 4.7797 66.981 4.129 99.161 18.642 0.30288 36.535 0.0635 54.615 0 1.0055-44.698 4.5869-92.075-11.305-134.84-13.79-39.767-50.406-70.109-92.006-76.44-8.1603-1.4108-16.445-2.0634-24.724-2.0629-0.61962-0.011-1.2394-0.0172-1.8593-0.0191z" color="#000000" color-rendering="auto" dominant-baseline="auto" fill="#aad400" fill-rule="evenodd" image-rendering="auto" shape-rendering="auto" solid-color="#000000" style="font-feature-settings:normal;font-variant-alternates:normal;font-variant-caps:normal;font-variant-ligatures:normal;font-variant-numeric:normal;font-variant-position:normal;isolation:auto;mix-blend-mode:normal;shape-padding:0;text-decoration-color:#000000;text-decoration-line:none;text-decoration-style:solid;text-indent:0;text-orientation:mixed;text-transform:none;white-space:normal"/>
  <g transform="matrix(3.246 0 0 3.246 -784.68 -166.1)" fill="#aad400">
   <g fill="#aad400" fill-rule="evenodd" shape-rendering="auto">
    <path d="m91.51 10.986 3.2266 8.291c2.1838 5.6112 3.364 18.089 5.6836 29.133 1.1598 5.5221 2.6047 10.816 5.4336 15.361 2.8289 4.5456 8.0614 8.4446 14.236 8.3359l56.25-0.99023 0.28711-5.6738s0.67609-12.465-1.3945-25.309c-1.0353-6.4217-2.6831-13.015-5.9688-18.627-3.2856-5.6118-9.1684-10.521-16.656-10.521zm16.932 12.17h44.166c2.7076 0 4.1657 1.0982 6.1562 4.498s3.5533 8.8223 4.4551 14.416c1.0917 6.7712 1.2833 12.684 1.2949 17.084l-44.639 0.78516c-1.7744 0.03123-2.2504-0.28345-3.6894-2.5957-1.439-2.3122-2.8231-6.5202-3.8555-11.436-1.4838-7.0648-2.2696-15.297-3.8887-22.752z" color="#000000" color-rendering="auto" dominant-baseline="auto" image-rendering="auto" solid-color="#000000" style="font-feature-settings:normal;font-variant-alternates:normal;font-variant-caps:normal;font-variant-ligatures:normal;font-variant-numeric:normal;font-variant-position:normal;isolation:auto;mix-blend-mode:normal;shape-padding:0;text-decoration-color:#000000;text-decoration-line:none;text-decoration-style:solid;text-indent:0;text-orientation:mixed;text-transform:none;white-space:normal"/>
    <path d="m222.06 11.254c-18.087 0-29.058 10.26-33.496 21.857-4.4383 11.598-3.9548 24.315-3.6719 32.5l0.20899 6.0801 12.162-0.41992-0.21094-6.082c-0.27781-8.0373-0.32917-19.351 2.877-27.729 3.2061-8.3779 8.0594-14.037 22.131-14.037 14.044 0 18.878 5.7329 22.086 14.184 3.2084 8.4507 3.1606 19.767 2.9629 27.641l-0.1543 6.082 12.166 0.30469 0.15234-6.082c0.1989-7.9194 0.66421-20.634-3.752-32.266-4.4162-11.632-15.346-22.033-33.461-22.033z" color="#000000" color-rendering="auto" dominant-baseline="auto" image-rendering="auto" solid-color="#000000" style="font-feature-settings:normal;font-variant-alternates:normal;font-variant-caps:normal;font-variant-ligatures:normal;font-variant-numeric:normal;font-variant-position:normal;isolation:auto;mix-blend-mode:normal;shape-padding:0;text-decoration-color:#000000;text-decoration-line:none;text-decoration-style:solid;text-indent:0;text-orientation:mixed;text-transform:none;white-space:normal"/>
   </g>
  </g>
  <g class="letters">
   <path d="m-453.03-29.95v11.348h42.051l-40.09 34.991h23.189l42.684-37.252v-9.0866zm-1.1993 49.096-0.0435 0.03866v9.0849h70.319v-9.1235z" style="font-feature-settings:normal;font-variant-caps:normal;font-variant-ligatures:normal;font-variant-numeric:normal"/>
   <path d="m-369.81-29.95 30.755 33.693v12.646h20.808v-12.646l30.756-33.693h-22.81l-18.378 20.746-18.376-20.746zm30.755 49.096v9.1235h20.808v-9.1235z" style="font-feature-settings:normal;font-variant-caps:normal;font-variant-ligatures:normal;font-variant-numeric:normal"/>
   <path d="m-252.43-29.95c-8.7858 0-16.022 6.3942-17.331 14.802v31.537h20.81v-12.802h33.241v-11.348h-33.241v-10.841h35.348v-11.348zm-17.331 49.096v9.1235h20.81v-9.1235z" style="font-feature-settings:normal;font-variant-caps:normal;font-variant-ligatures:normal;font-variant-numeric:normal"/>
   <path d="m-178.48-29.95c-8.7858 0-16.022 6.3942-17.331 14.802v31.537h20.81v-10.15h5.8911c3.3872 0 6.0908 0.5327 8.1087 1.5986 2.0539 1.0659 4.0719 3.055 6.0538 5.9666l1.7579 2.5849h22.122l-3.1787-4.6532c-2.3061-3.3536-4.5955-5.8485-6.8657-7.4863-2.2341-1.6638-4.7739-2.7293-7.6205-3.1972 5.1888-1.1699 9.0628-2.9903 11.621-5.46 2.5944-2.4696 3.8916-5.6282 3.8916-9.4758 0-5.5633-2.4868-9.6312-7.4595-12.205-4.9366-2.5737-12.72-3.8614-23.35-3.8614zm3.479 10.88h8.7561c4.3601 0 7.4779 0.57211 9.3516 1.716 1.9098 1.1439 2.8633 3.0415 2.8633 5.6932 0 2.6776-0.95355 4.6021-2.8633 5.772-1.8737 1.1699-4.9916 1.7546-9.3516 1.7546h-8.7561zm-20.81 38.217v9.1235h20.81v-9.1235zm44.497 0 6.2031 9.1235h22.16l-6.2333-9.1235z" style="font-feature-settings:normal;font-variant-caps:normal;font-variant-ligatures:normal;font-variant-numeric:normal"/>
   <path d="m-73.766-31.001c-12.936 0-23.097 2.6779-30.484 8.0332-7.3509 5.3553-11.026 12.75-11.026 22.187 0 6.777 1.9163 12.496 5.7284 17.17h25.252c-1.5837-0.771-2.9947-1.7472-4.2254-2.9372-3.4953-3.3795-5.2436-8.1237-5.2436-14.233 0-6.1353 1.7484-10.892 5.2436-14.272 3.4953-3.3796 8.4127-5.0692 14.755-5.0692 6.378 0 11.315 1.6895 14.81 5.0692 3.4953 3.3796 5.2436 8.1363 5.2436 14.272 0 6.1092-1.7483 10.853-5.2436 14.233-1.2305 1.1898-2.6427 2.1663-4.2305 2.9372h25.203c3.812-4.6739 5.7284-10.393 5.7284-17.17 0-9.4369-3.6749-16.832-11.026-22.187-7.3508-5.3553-17.513-8.0332-30.485-8.0332zm-33.191 50.148c0.8401 0.77502 1.74 1.5161 2.7074 2.2209 7.3869 5.3553 17.548 8.0332 30.484 8.0332 12.972 0 23.135-2.6779 30.485-8.0332 0.9677-0.70503 1.8671-1.4456 2.7074-2.2209z" style="font-feature-settings:normal;font-variant-caps:normal;font-variant-ligatures:normal;font-variant-numeric:normal"/>
   <path d="m2.4693-29.95c-8.7858 0-16.022 6.3942-17.331 14.802v31.537h19.728v-28.05l20.617 28.05h31.973v-46.339h-19.728v39.931l-29.35-39.931zm-17.331 49.096v9.1235h19.728v-9.1235zm42.372 0 6.7063 9.1235h23.241v-9.1235z" style="font-feature-settings:normal;font-variant-caps:normal;font-variant-ligatures:normal;font-variant-numeric:normal"/>
  </g>
  <g>
   <path transform="scale(.26458)" d="m-315.44 864.53c-32.536 0.0578-65.174 1.3738-97.605 0.38086h-655.27c30.099 81.89 70.11 161.09 80.412 248.87 25.31 133.26 35.895 271.54 89.023 397.67 38.096 95.091 125.53 164.4 239.41 163.07 235.48 2.2265 467.41 0.7479 704.29 0 11.787-184.43 10.218-385.69-44.389-563.83-32.296-106.22-105.52-211.54-218.88-238.99-32.024-6.0297-64.457-7.2296-96.992-7.1719zm-144 209.64c64.208 0.01 128.41 0.089 192.62 0.3574 46.94 19.239 58.475 79.007 74.1 122.79 23.603 84.172 29.924 181.14 31.568 268.26-174.46 3.0427-348.69-2.96-522.41 0-48.288-68.335-56.824-155.29-71.648-235.59-8.2063-51.954-15.527-104.06-25.268-155.76 107.01 0.1269 214.03-0.064 321.04-0.051z" color="#000000" color-rendering="auto" dominant-baseline="auto" fill="#aad400" fill-rule="evenodd" image-rendering="auto" shape-rendering="auto" solid-color="#000000" style="font-feature-settings:normal;font-variant-alternates:normal;font-variant-caps:normal;font-variant-ligatures:normal;font-variant-numeric:normal;font-variant-position:normal;isolation:auto;mix-blend-mode:normal;shape-padding:0;text-decoration-color:#000000;text-decoration-line:none;text-decoration-style:solid;text-indent:0;text-orientation:mixed;text-transform:none;white-space:normal"/>
   <path d="m-342.36 491.18h849.84v123.82h-849.84z" fill="#b3b3b3" opacity=".756"/>
   <path d="m338.35 858.92a138.64 138.64 0 0 1-138.64 138.64 138.64 138.64 0 0 1-138.64-138.64 138.64 138.64 0 0 1 138.64-138.64 138.64 138.64 0 0 1 138.64 138.64z" fill="#b3b3b3" opacity=".756"/>
   <path transform="scale(.26458)" d="m-1068.3 864.91c30.099 81.89 70.11 161.09 80.412 248.87 25.31 133.26 35.895 271.54 89.023 397.67 38.096 95.091 125.53 164.4 239.41 163.07 12.154 0.1149 24.294 0.2148 36.43 0.3106a524 524 0 0 0 187.79-209.33c-82.865-0.71-165.65-1.3382-248.31 0.07-48.288-68.335-56.824-155.29-71.648-235.59-8.2063-51.954-15.527-104.06-25.268-155.76 107.01 0.1267 214.03-0.064 321.04-0.051 18.85 0 37.699 0.031 56.549 0.049-0.75065-7e-4 -1.5013 0-2.252 0a524 524 0 0 0-125.8-209.3zm633.06 600.59c25.763 0.2207 51.535 0.4423 77.312 0.6211-25.78-0.1797-51.549-0.4003-77.312-0.6211zm257.49 0.334c-2.3777 0.034-4.7552 0.059-7.1328 0.09 2.3774-0.031 4.7553-0.056 7.1328-0.09zm-16.674 0.2109c-4.1357 0.047-8.2708 0.069-12.406 0.1074 4.1355-0.038 8.2704-0.061 12.406-0.1074zm-161.02 0.094c9.718 0.066 19.436 0.1255 29.156 0.1738-9.7197-0.049-19.439-0.1073-29.156-0.1738zm127.39 0.1894c-5.3522 0.031-10.703 0.041-16.055 0.061 5.3517-0.019 10.702-0.029 16.055-0.061zm-90.4 0.016c8.0482 0.035 16.097 0.068 24.146 0.086-8.0499-0.018-16.098-0.05-24.146-0.086zm37.879 0.098c6.3832 0.01 12.766 0.015 19.15 0.01-6.3838 0.01-12.767-5e-4 -19.15-0.01zm-341.84 208.39c11.756 0.092 23.502 0.1743 35.244 0.25-11.742-0.076-23.488-0.1575-35.244-0.25zm499.48 0.2812c-14.217 0.051-28.398 0.095-42.596 0.1426 14.187-0.048 28.389-0.091 42.596-0.1426zm-456.62 0.02c11.215 0.069 22.423 0.1268 33.627 0.1816-11.204-0.055-22.412-0.1126-33.627-0.1816zm42.473 0.2265c11.556 0.053 23.106 0.098 34.652 0.1367-11.547-0.039-23.096-0.084-34.652-0.1367zm326.32 0.045c-14.175 0.042-28.331 0.071-42.494 0.1055 14.16-0.035 28.322-0.063 42.494-0.1055zm-284.88 0.1153c10.853 0.034 21.702 0.062 32.549 0.086-10.847-0.024-21.696-0.051-32.549-0.086zm199.14 0.088c-14.455 0.025-28.905 0.033-43.355 0.047 14.449-0.014 28.902-0.021 43.355-0.047zm-156.78 0.018c23.768 0.044 47.528 0.059 71.283 0.059-23.757 4e-4 -47.514-0.014-71.283-0.059z" color="#000000" color-rendering="auto" dominant-baseline="auto" fill="url(#linearGradient866)" fill-rule="evenodd" image-rendering="auto" shape-rendering="auto" solid-color="#000000" style="font-feature-settings:normal;font-variant-alternates:normal;font-variant-caps:normal;font-variant-ligatures:normal;font-variant-numeric:normal;font-variant-position:normal;isolation:auto;mix-blend-mode:normal;shape-padding:0;text-decoration-color:#000000;text-decoration-line:none;text-decoration-style:solid;text-indent:0;text-orientation:mixed;text-transform:none;white-space:normal"/>
   <path transform="scale(.26458)" d="m-315.44 864.53c-32.536 0.0578-65.174 1.3738-97.605 0.38086h-117.9a524 524 0 0 1 125.8 209.3c46.108 0.042 92.215 0.12 138.32 0.3125 46.94 19.239 58.475 79.007 74.1 122.79 23.603 84.172 29.924 181.14 31.568 268.26-91.444 1.5948-182.82 0.7118-274.1-0.07a524 524 0 0 1-187.79 209.33c223 1.7601 443.21 0.3987 667.87-0.3106 11.787-184.43 10.218-385.69-44.389-563.83-32.296-106.22-105.52-211.54-218.88-238.99-32.024-6.0297-64.457-7.2296-96.992-7.1719z" color="#000000" color-rendering="auto" dominant-baseline="auto" fill="url(#linearGradient858)" fill-rule="evenodd" image-rendering="auto" shape-rendering="auto" solid-color="#000000" style="font-feature-settings:normal;font-variant-alternates:normal;font-variant-caps:normal;font-variant-ligatures:normal;font-variant-numeric:normal;font-variant-position:normal;isolation:auto;mix-blend-mode:normal;shape-padding:0;text-decoration-color:#000000;text-decoration-line:none;text-decoration-style:solid;text-indent:0;text-orientation:mixed;text-transform:none;white-space:normal"/>
   <path d="m-2.4794 912.11a208.24 208.24 0 0 1-208.24 208.24 208.24 208.24 0 0 1-208.24-208.24 208.24 208.24 0 0 1 208.24-208.24 208.24 208.24 0 0 1 208.24 208.24z" fill="#b3b3b3" opacity=".756"/>
  </g>
  <g class="letters">
   <path d="m-228.83 354.22v11.348h42.051l-40.09 34.991h23.189l42.684-37.252v-9.0866zm-1.1993 49.096-0.0435 0.0387v9.0849h70.319v-9.1235z" style="font-feature-settings:normal;font-variant-caps:normal;font-variant-ligatures:normal;font-variant-numeric:normal"/>
   <path d="m-145.61 354.22 30.755 33.693v12.646h20.808v-12.646l30.756-33.693h-22.81l-18.378 20.746-18.376-20.746zm30.755 49.096v9.1235h20.808v-9.1235z" style="font-feature-settings:normal;font-variant-caps:normal;font-variant-ligatures:normal;font-variant-numeric:normal"/>
   <path d="m-28.241 354.22c-8.7858 0-16.022 6.3942-17.331 14.802v31.537h20.81v-12.802h33.241v-11.348h-33.241v-10.841h35.348v-11.348zm-17.331 49.096v9.1235h20.81v-9.1235z" style="font-feature-settings:normal;font-variant-caps:normal;font-variant-ligatures:normal;font-variant-numeric:normal"/>
   <path d="m150.43 353.17c-12.936 0-23.097 2.6779-30.484 8.0332-7.3509 5.3553-11.026 12.75-11.026 22.187 0 6.777 1.9163 12.496 5.7284 17.17h25.252c-1.5837-0.771-2.9947-1.7472-4.2254-2.9372-3.4953-3.3796-5.2436-8.1236-5.2436-14.233 0-6.1352 1.7484-10.892 5.2436-14.272 3.4953-3.3796 8.4127-5.0692 14.755-5.0692 6.378 0 11.315 1.6896 14.81 5.0692 3.4953 3.3796 5.2436 8.1362 5.2436 14.272 0 6.1092-1.7483 10.853-5.2436 14.233-1.2305 1.1898-2.6427 2.1663-4.2304 2.9372h25.203c3.812-4.6739 5.7284-10.393 5.7284-17.17 0-9.4369-3.6749-16.832-11.026-22.187-7.3508-5.3553-17.513-8.0332-30.485-8.0332zm-33.191 50.148c0.8401 0.77502 1.74 1.5161 2.7074 2.2209 7.3869 5.3553 17.548 8.0332 30.484 8.0332 12.972 0 23.135-2.6778 30.485-8.0332 0.9677-0.70503 1.8671-1.4456 2.7074-2.2209z" style="font-feature-settings:normal;font-variant-caps:normal;font-variant-ligatures:normal;font-variant-numeric:normal"/>
   <path d="m226.66 354.22c-8.7858 0-16.022 6.3942-17.331 14.802v31.537h19.728v-28.05l20.617 28.05h31.973v-46.339h-19.728v39.931l-29.35-39.931zm-17.331 49.096v9.1235h19.728v-9.1235zm42.372 0 6.7063 9.1235h23.241v-9.1235z" style="font-feature-settings:normal;font-variant-caps:normal;font-variant-ligatures:normal;font-variant-numeric:normal"/>
   <path d="m45.712 354.22c-8.7858 0-16.022 6.3942-17.331 14.802v31.537h20.81v-10.15h5.8911c3.3872 0 6.0908 0.5327 8.1087 1.5986 2.0539 1.0659 4.0719 3.055 6.0538 5.9666l1.7579 2.5849h22.122l-3.1787-4.6532c-2.3061-3.3536-4.5955-5.8485-6.8657-7.4863-2.2341-1.6638-4.7739-2.7293-7.6205-3.1972 5.1888-1.1699 9.0628-2.9903 11.621-5.46 2.5944-2.4696 3.8916-5.6282 3.8916-9.4758 0-5.5633-2.4868-9.6312-7.4595-12.205-4.9366-2.5737-12.72-3.8614-23.35-3.8614zm3.479 10.88h8.7561c4.3601 0 7.4779 0.5721 9.3516 1.716 1.9098 1.1439 2.8633 3.0415 2.8633 5.6932 0 2.6776-0.95355 4.6021-2.8633 5.772-1.8737 1.1699-4.9916 1.7546-9.3516 1.7546h-8.7561zm-20.81 38.217v9.1235h20.81v-9.1235zm44.497 0 6.2031 9.1235h22.16l-6.2333-9.1235z" style="font-feature-settings:normal;font-variant-caps:normal;font-variant-ligatures:normal;font-variant-numeric:normal"/>
  </g>
  <circle cx="842.65" cy="364.35" r="144.43" fill="#999"/>
  <circle cx="842.65" cy="364.35" r="176.73" fill="none" stroke="#999" stroke-linecap="square" stroke-width="11.845"/>
 </g>
 <g transform="translate(487.64 130.44)">
  <path transform="scale(.26458)" d="m634.12 868.12c-147.61-0.44901-297.1 67.396-380.94 191.3-88.263 129.29-102.48 292.06-99.861 444.39 1.3773 55.634 6.4774 115.08 8.2832 170.7 70.444 1.0133 139.45 0.6627 206.35 0-3.8246-141.51-17.367-298.12 26.426-435.13 21.052-67.292 67.73-132.5 139.95-149.18 26.889-6.5462 54.6-10.782 82.482-12.422a524 524 0 0 1 236.78-165.04c-37.542-17.865-77.615-30.456-119-36.754-30.842-5.3321-62.154-7.7988-93.445-7.7969-2.3419-0.0416-4.6843-0.0651-7.0273-0.0723z" color="#000000" color-rendering="auto" dominant-baseline="auto" fill="#0ff" fill-rule="evenodd" image-rendering="auto" shape-rendering="auto" solid-color="#000000" style="font-feature-settings:normal;font-variant-alternates:normal;font-variant-caps:normal;font-variant-ligatures:normal;font-variant-numeric:normal;font-variant-position:normal;isolation:auto;mix-blend-mode:normal;shape-padding:0;text-decoration-color:#000000;text-decoration-line:none;text-decoration-style:solid;text-indent:0;text-orientation:mixed;text-transform:none;white-space:normal"/>
 </g>
 <g transform="translate(487.64 130.44)">
  <path transform="scale(.26458)" d="m634.12 868.12c-147.61-0.44901-297.1 67.396-380.94 191.3-88.263 129.29-102.48 292.06-99.861 444.39 1.3773 55.634 6.4774 115.08 8.2832 170.7 70.444 1.0133 139.45 0.6627 206.35 0-3.8246-141.51-17.367-298.12 26.426-435.13 21.052-67.292 67.73-132.5 139.95-149.18 26.889-6.5462 54.6-10.782 82.482-12.422a524 524 0 0 1 236.78-165.04c-37.542-17.865-77.615-30.456-119-36.754-30.842-5.3321-62.154-7.7988-93.445-7.7969-2.3419-0.0416-4.6843-0.0651-7.0273-0.0723z" color="#000000" color-rendering="auto" dominant-baseline="auto" fill="url(#linearGradient2686)" fill-rule="evenodd" image-rendering="auto" shape-rendering="auto" solid-color="#000000" style="font-feature-settings:normal;font-variant-alternates:normal;font-variant-caps:normal;font-variant-ligatures:normal;font-variant-numeric:normal;font-variant-position:normal;isolation:auto;mix-blend-mode:normal;shape-padding:0;text-decoration-color:#000000;text-decoration-line:none;text-decoration-style:solid;text-indent:0;text-orientation:mixed;text-transform:none;white-space:normal"/>
 </g>
 <g transform="translate(487.64 130.44)" fill-rule="evenodd" shape-rendering="auto">
  <path transform="scale(.26458)" d="m264.14 1044.1c-3.7622 5.0226-7.423 10.137-10.957 15.359-88.263 129.29-102.48 292.06-99.861 444.39 1.3773 55.634 6.4774 115.08 8.2832 170.7 70.444 1.0133 139.45 0.6627 206.35 0-9e-3 -0.3202-0.0205-0.6464-0.0293-0.9668a787.04 787.04 0 0 1-129.88-432.39 787.04 787.04 0 0 1 26.09-197.1z" color="#000000" color-rendering="auto" dominant-baseline="auto" fill="url(#linearGradient2694)" image-rendering="auto" solid-color="#000000" style="font-feature-settings:normal;font-variant-alternates:normal;font-variant-caps:normal;font-variant-ligatures:normal;font-variant-numeric:normal;font-variant-position:normal;isolation:auto;mix-blend-mode:normal;shape-padding:0;text-decoration-color:#000000;text-decoration-line:none;text-decoration-style:solid;text-indent:0;text-orientation:mixed;text-transform:none;white-space:normal"/>
  <g transform="matrix(.96965 0 0 .96965 33.624 -5.7517)">
   <path d="m906.08 333.92c-17.54-0.0534-35.302 8.008-45.264 22.731-10.487 15.363-12.177 34.703-11.866 52.803 0.16365 6.6104 0.76968 13.674 0.98425 20.283 8.3702 0.1204 16.57 0.0787 24.519 0-0.45445-16.814-2.0636-35.423 3.1399-51.702 2.5015-7.9957 8.0478-15.744 16.629-17.726 8.8119-2.1453 18.366-2.2149 27.044 0.57159 10.299 3.4296 14.755 14.55 16.766 24.325 2.7998 14.281 2.1465 30.08 1.8543 44.532 8.3718 0.13602 16.407 0.0285 24.527 0 0.45155-20.073 2.0599-41.35-5.0771-60.553-6.1928-17.859-22.636-31.485-41.319-34.328-3.6647-0.63356-7.3852-0.92666-11.103-0.92643-0.27826-5e-3 -0.55658-8e-3 -0.83499-9e-3z" color="#000000" color-rendering="auto" dominant-baseline="auto" fill="#aad400" image-rendering="auto" solid-color="#000000" style="font-feature-settings:normal;font-variant-alternates:normal;font-variant-caps:normal;font-variant-ligatures:normal;font-variant-numeric:normal;font-variant-position:normal;isolation:auto;mix-blend-mode:normal;shape-padding:0;text-decoration-color:#000000;text-decoration-line:none;text-decoration-style:solid;text-indent:0;text-orientation:mixed;text-transform:none;white-space:normal"/>
   <path d="m793.25 333.49c-3.8659 7e-3 -7.744 0.16323-11.598 0.0453h-77.86c3.5764 9.7303 8.3305 19.141 9.5546 29.571 3.0073 15.833 4.265 32.265 10.578 47.252 4.5267 11.299 14.916 19.534 28.446 19.376 27.979 0.26456 55.538 0.0889 83.685 0 1.4006-21.914 1.2141-45.828-5.2743-66.995-3.8374-12.621-12.538-25.135-26.008-28.397-3.8051-0.71646-7.6588-0.85903-11.525-0.85217zm-17.11 24.909c7.6293 1e-3 15.258 0.0106 22.887 0.0425 5.5775 2.286 6.948 9.3877 8.8046 14.59 2.8045 10.001 3.5556 21.523 3.751 31.875-20.73 0.36154-41.432-0.3517-62.073 0-5.7376-8.1197-6.7519-18.452-8.5133-27.993-0.97508-6.1732-1.845-12.365-3.0023-18.508 12.715 0.0151 25.431-8e-3 38.147-6e-3z" color="#000000" color-rendering="auto" dominant-baseline="auto" fill="#aad400" image-rendering="auto" solid-color="#000000" style="font-feature-settings:normal;font-variant-alternates:normal;font-variant-caps:normal;font-variant-ligatures:normal;font-variant-numeric:normal;font-variant-position:normal;isolation:auto;mix-blend-mode:normal;shape-padding:0;text-decoration-color:#000000;text-decoration-line:none;text-decoration-style:solid;text-indent:0;text-orientation:mixed;text-transform:none;white-space:normal"/>
   <path d="m703.79 333.54c3.5764 9.7303 8.3305 19.141 9.5546 29.571 3.0073 15.833 4.265 32.265 10.578 47.252 4.5267 11.299 14.916 19.534 28.446 19.376 1.4441 0.0137 2.8866 0.0255 4.3286 0.0369a62.262 62.262 0 0 0 22.313-24.873c-9.8462-0.0844-19.683-0.159-29.505 8e-3 -5.7376-8.1197-6.7519-18.452-8.5133-27.993-0.97508-6.1732-1.845-12.365-3.0023-18.508 12.715 0.015 25.431-8e-3 38.147-6e-3 2.2398 3.4e-4 4.4795 4e-3 6.7192 6e-3 -0.0892-8e-5 -0.17839-3.8e-4 -0.26758-4.5e-4a62.262 62.262 0 0 0-14.947-24.869zm75.221 71.362c3.0612 0.0262 6.1234 0.0526 9.1863 0.0738-3.0632-0.0213-6.125-0.0476-9.1863-0.0738zm30.595 0.0397c-0.28252 4e-3 -0.56502 7e-3 -0.84752 0.0107 0.28249-4e-3 0.56502-7e-3 0.84752-0.0107zm-1.9812 0.0251c-0.49141 6e-3 -0.98274 8e-3 -1.4741 0.0127 0.49139-4e-3 0.9827-7e-3 1.4741-0.0127zm-19.133 0.0111c1.1547 8e-3 2.3094 0.0149 3.4644 0.0206-1.1549-6e-3 -2.3097-0.0127-3.4644-0.0206zm15.137 0.0225c-0.63595 4e-3 -1.2717 5e-3 -1.9076 7e-3 0.6359-2e-3 1.2717-4e-3 1.9076-7e-3zm-10.741 2e-3c0.9563 4e-3 1.9126 8e-3 2.8691 0.0102-0.95649-2e-3 -1.9128-6e-3 -2.8691-0.0102zm4.5008 0.0116c0.75846 4.5e-4 1.5169 2e-3 2.2755 9e-4 -0.75852 9e-4 -1.517-6e-5 -2.2755-9e-4zm-40.618 24.761c1.3969 0.011 2.7926 0.0207 4.1878 0.0297-1.3952-9e-3 -2.7908-0.0187-4.1878-0.0297zm59.349 0.0334c-1.6893 6e-3 -3.3743 0.0113-5.0613 0.0169 1.6857-6e-3 3.3732-0.0109 5.0613-0.0169zm-54.256 2e-3c1.3326 8e-3 2.6643 0.015 3.9956 0.0216-1.3313-7e-3 -2.663-0.0134-3.9956-0.0216zm5.0466 0.0269c1.373 6e-3 2.7454 0.0116 4.1174 0.0163-1.372-5e-3 -2.7443-0.01-4.1174-0.0163zm38.774 5e-3c-1.6842 5e-3 -3.3664 8e-3 -5.0492 0.0125 1.6826-4e-3 3.3652-8e-3 5.0492-0.0125zm-33.85 0.0137c1.2895 4e-3 2.5786 7e-3 3.8675 0.0102-1.2888-3e-3 -2.578-6e-3 -3.8675-0.0102zm23.663 0.0105c-1.7176 3e-3 -3.4345 4e-3 -5.1515 6e-3 1.7168-2e-3 3.4342-3e-3 5.1515-6e-3zm-18.629 2e-3c2.8241 5e-3 5.6474 7e-3 8.4699 7e-3 -2.8228 5e-5 -5.6456-2e-3 -8.4699-7e-3z" color="#000000" color-rendering="auto" dominant-baseline="auto" fill="url(#linearGradient922)" image-rendering="auto" solid-color="#000000" style="font-feature-settings:normal;font-variant-alternates:normal;font-variant-caps:normal;font-variant-ligatures:normal;font-variant-numeric:normal;font-variant-position:normal;isolation:auto;mix-blend-mode:normal;shape-padding:0;text-decoration-color:#000000;text-decoration-line:none;text-decoration-style:solid;text-indent:0;text-orientation:mixed;text-transform:none;white-space:normal"/>
   <path d="m793.25 333.49c-3.8659 7e-3 -7.744 0.16323-11.598 0.0453h-14.009a62.262 62.262 0 0 1 14.947 24.869c5.4786 5e-3 10.957 0.0143 16.435 0.0371 5.5775 2.286 6.948 9.3877 8.8046 14.59 2.8045 10.001 3.5556 21.523 3.751 31.875-10.865 0.1895-21.723 0.0846-32.569-8e-3a62.262 62.262 0 0 1-22.313 24.873c26.497 0.20914 52.663 0.0474 79.357-0.0369 1.4006-21.914 1.2141-45.828-5.2743-66.995-3.8374-12.621-12.538-25.135-26.008-28.397-3.8051-0.71645-7.6588-0.85902-11.525-0.85216z" color="#000000" color-rendering="auto" dominant-baseline="auto" fill="url(#linearGradient924)" image-rendering="auto" solid-color="#000000" style="font-feature-settings:normal;font-variant-alternates:normal;font-variant-caps:normal;font-variant-ligatures:normal;font-variant-numeric:normal;font-variant-position:normal;isolation:auto;mix-blend-mode:normal;shape-padding:0;text-decoration-color:#000000;text-decoration-line:none;text-decoration-style:solid;text-indent:0;text-orientation:mixed;text-transform:none;white-space:normal"/>
   <path d="m906.08 333.92c-17.54-0.0534-35.302 8.008-45.264 22.731-10.487 15.363-12.177 34.703-11.866 52.803 0.16366 6.6104 0.76965 13.674 0.98422 20.283 8.3702 0.1204 16.57 0.0787 24.519 0-0.45445-16.814-2.0636-35.423 3.1399-51.702 2.5015-7.9957 8.0478-15.744 16.629-17.726 3.195-0.77782 6.4877-1.2811 9.8006-1.476a62.262 62.262 0 0 1 28.134-19.61c-4.4607-2.1227-9.2223-3.6188-14.139-4.3671-3.6647-0.63357-7.3852-0.92666-11.103-0.92643-0.27826-5e-3 -0.55659-8e-3 -0.835-9e-3z" color="#000000" color-rendering="auto" dominant-baseline="auto" fill="#0ff" image-rendering="auto" solid-color="#000000" style="font-feature-settings:normal;font-variant-alternates:normal;font-variant-caps:normal;font-variant-ligatures:normal;font-variant-numeric:normal;font-variant-position:normal;isolation:auto;mix-blend-mode:normal;shape-padding:0;text-decoration-color:#000000;text-decoration-line:none;text-decoration-style:solid;text-indent:0;text-orientation:mixed;text-transform:none;white-space:normal"/>
   <path d="m862.12 354.83c-0.44703 0.59679-0.88202 1.2044-1.3019 1.825-10.487 15.363-12.177 34.703-11.866 52.803 0.16366 6.6104 0.76965 13.674 0.98422 20.283 8.3702 0.1204 16.57 0.0787 24.519 0-9e-4 -0.038-2e-3 -0.0768-4e-3 -0.11487a93.517 93.517 0 0 1-15.432-51.377 93.517 93.517 0 0 1 3.1-23.42z" color="#000000" color-rendering="auto" dominant-baseline="auto" fill="url(#linearGradient926)" image-rendering="auto" solid-color="#000000" style="font-feature-settings:normal;font-variant-alternates:normal;font-variant-caps:normal;font-variant-ligatures:normal;font-variant-numeric:normal;font-variant-position:normal;isolation:auto;mix-blend-mode:normal;shape-padding:0;text-decoration-color:#000000;text-decoration-line:none;text-decoration-style:solid;text-indent:0;text-orientation:mixed;text-transform:none;white-space:normal"/>
  </g>
 </g>
</svg>
